<svg width="206" height="59" viewBox="0 0 206 59" fill="none" xmlns="http://www.w3.org/2000/svg">
<rect x="0.5" y="0.747314" width="205" height="57" rx="7.5" fill="black" stroke="white"/>
<path d="M68.12 24.2473C71.448 24.2473 73.688 22.0553 73.688 18.9033C73.688 15.7833 71.448 13.5753 68.104 13.5753H64.136V24.2473H68.12ZM68.104 22.5993H66.008V15.2233H68.12C70.488 15.2233 71.768 16.8553 71.768 18.9033C71.768 20.9353 70.424 22.5993 68.104 22.5993ZM78.9514 24.4393C81.4154 24.4393 82.9194 22.5833 82.9194 20.3753C82.9194 18.1513 81.4154 16.3273 78.9514 16.3273C76.4874 16.3273 74.9834 18.1513 74.9834 20.3753C74.9834 22.5833 76.4874 24.4393 78.9514 24.4393ZM78.9514 22.9513C77.5274 22.9513 76.7274 21.7513 76.7274 20.3753C76.7274 19.0153 77.5274 17.8153 78.9514 17.8153C80.3914 17.8153 81.1754 19.0153 81.1754 20.3753C81.1754 21.7513 80.3914 22.9513 78.9514 22.9513ZM93.1469 24.2473L95.5469 16.5193H93.7869L92.1549 22.1353L90.3309 16.5193H88.8429L87.0029 22.1353L85.3709 16.5193H83.6269L86.0269 24.2473H87.7869L89.5789 18.5833L91.3869 24.2473H93.1469ZM103.625 24.2473V18.8073C103.625 17.2233 102.793 16.3273 101.129 16.3273C99.913 16.3273 98.905 16.9513 98.393 17.5593V16.5193H96.713V24.2473H98.393V18.8393C98.793 18.3273 99.529 17.8153 100.377 17.8153C101.321 17.8153 101.945 18.1993 101.945 19.4153V24.2473H103.625ZM107.487 24.2473V13.5753H105.807V24.2473H107.487ZM113.17 24.4393C115.634 24.4393 117.138 22.5833 117.138 20.3753C117.138 18.1513 115.634 16.3273 113.17 16.3273C110.706 16.3273 109.202 18.1513 109.202 20.3753C109.202 22.5833 110.706 24.4393 113.17 24.4393ZM113.17 22.9513C111.746 22.9513 110.946 21.7513 110.946 20.3753C110.946 19.0153 111.746 17.8153 113.17 17.8153C114.61 17.8153 115.394 19.0153 115.394 20.3753C115.394 21.7513 114.61 22.9513 113.17 22.9513ZM125.27 24.2473V19.1113C125.27 17.0473 123.766 16.3273 122.038 16.3273C120.806 16.3273 119.686 16.7113 118.79 17.5753L119.494 18.7433C120.15 18.0713 120.918 17.7513 121.782 17.7513C122.838 17.7513 123.59 18.2953 123.59 19.1913V20.3433C123.014 19.6873 122.134 19.3513 121.078 19.3513C119.814 19.3513 118.406 20.0873 118.406 21.8793C118.406 23.5753 119.83 24.4393 121.078 24.4393C122.102 24.4393 123.014 24.0713 123.59 23.3993V24.2473H125.27ZM121.75 23.2873C120.806 23.2873 120.086 22.7433 120.086 21.8953C120.086 21.0633 120.806 20.5033 121.75 20.5033C122.47 20.5033 123.19 20.7753 123.59 21.3033V22.4873C123.19 23.0153 122.47 23.2873 121.75 23.2873ZM134.567 24.2473V13.5753H132.887V17.5913C132.279 16.7593 131.383 16.3273 130.407 16.3273C128.423 16.3273 126.983 17.8793 126.983 20.3753C126.983 22.9353 128.439 24.4393 130.407 24.4393C131.415 24.4393 132.295 23.9593 132.887 23.1913V24.2473H134.567ZM130.903 22.9513C129.559 22.9513 128.711 21.8793 128.711 20.3753C128.711 18.8873 129.559 17.8153 130.903 17.8153C131.687 17.8153 132.519 18.2793 132.887 18.8553V21.9113C132.519 22.4873 131.687 22.9513 130.903 22.9513ZM144.373 24.4393C146.837 24.4393 148.341 22.5833 148.341 20.3753C148.341 18.1513 146.837 16.3273 144.373 16.3273C141.909 16.3273 140.405 18.1513 140.405 20.3753C140.405 22.5833 141.909 24.4393 144.373 24.4393ZM144.373 22.9513C142.949 22.9513 142.149 21.7513 142.149 20.3753C142.149 19.0153 142.949 17.8153 144.373 17.8153C145.813 17.8153 146.597 19.0153 146.597 20.3753C146.597 21.7513 145.813 22.9513 144.373 22.9513ZM156.969 24.2473V18.8073C156.969 17.2233 156.137 16.3273 154.473 16.3273C153.257 16.3273 152.249 16.9513 151.737 17.5593V16.5193H150.057V24.2473H151.737V18.8393C152.137 18.3273 152.873 17.8153 153.721 17.8153C154.665 17.8153 155.289 18.1993 155.289 19.4153V24.2473H156.969ZM165.612 24.4393C166.38 24.4393 166.876 24.2153 167.18 23.9433L166.78 22.6633C166.652 22.8073 166.364 22.9513 166.044 22.9513C165.564 22.9513 165.308 22.5513 165.308 22.0233V17.9753H166.876V16.5193H165.308V14.4073H163.628V16.5193H162.348V17.9753H163.628V22.4393C163.628 23.7353 164.299 24.4393 165.612 24.4393ZM175.297 24.2473V18.7753C175.297 17.1913 174.465 16.3273 172.801 16.3273C171.585 16.3273 170.593 16.9513 170.081 17.5593V13.5753H168.401V24.2473H170.081V18.8393C170.465 18.3273 171.201 17.8153 172.065 17.8153C173.009 17.8153 173.617 18.1673 173.617 19.3833V24.2473H175.297ZM181.063 24.4393C182.279 24.4393 183.415 24.0393 184.199 23.3033L183.431 22.1993C182.871 22.7593 181.991 23.0633 181.223 23.0633C179.767 23.0633 178.903 22.0873 178.775 20.9353H184.727V20.5193C184.727 18.0873 183.255 16.3273 180.935 16.3273C178.647 16.3273 177.015 18.1353 177.015 20.3753C177.015 22.8233 178.727 24.4393 181.063 24.4393ZM183.111 19.7353H178.759C178.823 18.8073 179.495 17.7033 180.919 17.7033C182.439 17.7033 183.063 18.8233 183.111 19.7353Z" fill="white"/>
<path d="M77.784 48.2473L72.02 33.5733H68.808L63.044 48.2473H65.97L67.048 45.4093H73.78L74.858 48.2473H77.784ZM73.054 43.1433H67.774L70.414 36.1473L73.054 43.1433ZM85.0187 48.5113C87.7687 48.5113 89.7267 46.4213 89.7267 42.9233C89.7267 39.4253 87.7687 37.3573 85.0187 37.3573C83.6327 37.3573 82.4007 38.0173 81.6087 39.0733V37.6213H79.2987V52.2953H81.6087V46.7733C82.4887 47.8953 83.6767 48.5113 85.0187 48.5113ZM84.3367 46.4653C83.2587 46.4653 82.1147 45.8053 81.6087 45.0133V40.8113C82.1367 40.0193 83.2587 39.4033 84.3367 39.4033C86.1627 39.4033 87.3507 40.8553 87.3507 42.9233C87.3507 44.9913 86.1627 46.4653 84.3367 46.4653ZM97.759 48.5113C100.509 48.5113 102.467 46.4213 102.467 42.9233C102.467 39.4253 100.509 37.3573 97.759 37.3573C96.373 37.3573 95.141 38.0173 94.349 39.0733V37.6213H92.039V52.2953H94.349V46.7733C95.229 47.8953 96.417 48.5113 97.759 48.5113ZM97.077 46.4653C95.999 46.4653 94.855 45.8053 94.349 45.0133V40.8113C94.877 40.0193 95.999 39.4033 97.077 39.4033C98.903 39.4033 100.091 40.8553 100.091 42.9233C100.091 44.9913 98.903 46.4653 97.077 46.4653ZM115.555 48.5113C119.493 48.5113 121.231 46.3993 121.231 43.9573C121.231 38.5013 112.695 40.1953 112.695 37.4453C112.695 36.3673 113.663 35.6193 115.159 35.6193C116.699 35.6193 118.261 36.1473 119.427 37.3133L120.879 35.3993C119.537 34.0793 117.667 33.3313 115.401 33.3313C112.167 33.3313 110.055 35.2013 110.055 37.6433C110.055 43.0333 118.591 41.1193 118.591 44.1993C118.591 45.1893 117.777 46.2233 115.665 46.2233C113.619 46.2233 112.013 45.2553 111.023 44.1773L109.571 46.1793C110.891 47.5433 112.849 48.5113 115.555 48.5113ZM126.403 48.5113C127.459 48.5113 128.141 48.2033 128.559 47.8293L128.009 46.0693C127.833 46.2673 127.437 46.4653 126.997 46.4653C126.337 46.4653 125.985 45.9153 125.985 45.1893V39.6233H128.141V37.6213H125.985V34.7173H123.675V37.6213H121.915V39.6233H123.675V45.7613C123.675 47.5433 124.599 48.5113 126.403 48.5113ZM135.035 48.5113C138.423 48.5113 140.491 45.9593 140.491 42.9233C140.491 39.8653 138.423 37.3573 135.035 37.3573C131.647 37.3573 129.579 39.8653 129.579 42.9233C129.579 45.9593 131.647 48.5113 135.035 48.5113ZM135.035 46.4653C133.077 46.4653 131.977 44.8153 131.977 42.9233C131.977 41.0533 133.077 39.4033 135.035 39.4033C137.015 39.4033 138.093 41.0533 138.093 42.9233C138.093 44.8153 137.015 46.4653 135.035 46.4653ZM145.16 48.2473V41.0093C145.622 40.2393 146.92 39.5793 147.91 39.5793C148.196 39.5793 148.416 39.6013 148.614 39.6453V37.3573C147.25 37.3573 145.974 38.1493 145.16 39.1613V37.6213H142.85V48.2473H145.16ZM155.404 48.5113C157.076 48.5113 158.638 47.9613 159.716 46.9493L158.66 45.4313C157.89 46.2013 156.68 46.6193 155.624 46.6193C153.622 46.6193 152.434 45.2773 152.258 43.6933H160.442V43.1213C160.442 39.7773 158.418 37.3573 155.228 37.3573C152.082 37.3573 149.838 39.8433 149.838 42.9233C149.838 46.2893 152.192 48.5113 155.404 48.5113ZM158.22 42.0433H152.236C152.324 40.7673 153.248 39.2493 155.206 39.2493C157.296 39.2493 158.154 40.7893 158.22 42.0433Z" fill="white"/>
<path d="M38.055 13.257C39.7429 11.5797 40.8845 9.25092 40.572 6.92871C38.1404 7.00926 35.1934 8.25371 33.448 9.93091C31.8834 11.4157 30.5136 13.7888 30.8792 16.0654C33.5925 16.2358 36.3644 14.9317 38.055 13.257ZM43.2335 29.2943C43.1816 24.0881 47.6737 21.5877 47.8727 21.4668C45.3472 17.9315 41.4141 17.4477 40.0134 17.3931C36.6643 17.0668 33.4833 19.2759 31.783 19.2759C30.0896 19.2759 27.4703 17.436 24.6927 17.4854C21.0411 17.5413 17.6765 19.5151 15.8011 22.6434C12.0079 28.9368 14.8289 38.2594 18.5252 43.3642C20.3321 45.8632 22.4835 48.6666 25.3087 48.5652C28.0359 48.4638 29.064 46.8814 32.3542 46.8814C35.6459 46.8814 36.5675 48.5652 39.4473 48.5145C42.3776 48.4638 44.232 45.9673 46.0236 43.4605C48.0965 40.5622 48.9511 37.7563 49 37.6146C48.9371 37.5807 43.2937 35.5199 43.2335 29.2943Z" fill="white"/>
</svg>
