<svg width="206" height="58" viewBox="0 0 206 58" fill="none" xmlns="http://www.w3.org/2000/svg">
<rect x="0.5" y="0.5" width="205" height="57" rx="7.5" fill="black" stroke="white"/>
<path d="M63.488 20.182C65.098 20.182 66.414 19.496 67.324 18.474V14.988H62.9V16.43H65.7V17.872C65.28 18.278 64.44 18.712 63.488 18.712C61.64 18.712 60.268 17.284 60.268 15.338C60.268 13.364 61.64 11.964 63.488 11.964C64.524 11.964 65.406 12.51 65.91 13.21L67.24 12.44C66.498 11.376 65.308 10.508 63.488 10.508C60.772 10.508 58.588 12.398 58.588 15.338C58.588 18.264 60.772 20.182 63.488 20.182ZM75.4272 20V18.558H70.6672V15.954H75.3292V14.512H70.6672V12.104H75.4272V10.662H69.0292V20H75.4272ZM80.9732 20V12.104H83.8012V10.662H76.5072V12.104H79.3352V20H80.9732ZM90.4367 20V10.662H88.7987V20H90.4367ZM96.2857 20V12.104H99.1137V10.662H91.8197V12.104H94.6477V20H96.2857ZM108.479 20.168C111.265 20.168 113.253 18.124 113.253 15.338C113.253 12.552 111.265 10.508 108.479 10.508C105.679 10.508 103.705 12.552 103.705 15.338C103.705 18.124 105.679 20.168 108.479 20.168ZM108.479 18.712C106.589 18.712 105.385 17.256 105.385 15.338C105.385 13.406 106.589 11.964 108.479 11.964C110.355 11.964 111.573 13.406 111.573 15.338C111.573 17.256 110.355 18.712 108.479 18.712ZM122.908 20V10.662H121.27V17.13L116.496 10.662H114.816V20H116.454V13.322L121.326 20H122.908Z" fill="white"/>
<path d="M66.624 46.286C69.154 46.286 71.222 45.208 72.652 43.602V38.124H65.7V40.39H70.1V42.656C69.44 43.294 68.12 43.976 66.624 43.976C63.72 43.976 61.564 41.732 61.564 38.674C61.564 35.572 63.72 33.372 66.624 33.372C68.252 33.372 69.638 34.23 70.43 35.33L72.52 34.12C71.354 32.448 69.484 31.084 66.624 31.084C62.356 31.084 58.924 34.054 58.924 38.674C58.924 43.272 62.356 46.286 66.624 46.286ZM80.0835 46.264C83.4715 46.264 85.5395 43.712 85.5395 40.676C85.5395 37.618 83.4715 35.11 80.0835 35.11C76.6955 35.11 74.6275 37.618 74.6275 40.676C74.6275 43.712 76.6955 46.264 80.0835 46.264ZM80.0835 44.218C78.1255 44.218 77.0255 42.568 77.0255 40.676C77.0255 38.806 78.1255 37.156 80.0835 37.156C82.0635 37.156 83.1415 38.806 83.1415 40.676C83.1415 42.568 82.0635 44.218 80.0835 44.218ZM92.7163 46.264C96.1043 46.264 98.1723 43.712 98.1723 40.676C98.1723 37.618 96.1043 35.11 92.7163 35.11C89.3283 35.11 87.2603 37.618 87.2603 40.676C87.2603 43.712 89.3283 46.264 92.7163 46.264ZM92.7163 44.218C90.7583 44.218 89.6583 42.568 89.6583 40.676C89.6583 38.806 90.7583 37.156 92.7163 37.156C94.6963 37.156 95.7743 38.806 95.7743 40.676C95.7743 42.568 94.6963 44.218 92.7163 44.218ZM104.865 50.312C107.461 50.312 110.321 49.278 110.321 45.45V35.374H108.011V36.848C107.153 35.704 105.943 35.11 104.601 35.11C101.851 35.11 99.8932 37.112 99.8932 40.566C99.8932 44.064 101.895 46.022 104.601 46.022C105.987 46.022 107.197 45.318 108.011 44.24V45.45C108.011 47.716 106.383 48.42 104.865 48.42C103.457 48.42 102.357 48.046 101.477 47.056L100.399 48.728C101.719 49.916 103.061 50.312 104.865 50.312ZM105.283 43.954C103.435 43.954 102.269 42.612 102.269 40.566C102.269 38.52 103.435 37.156 105.283 37.156C106.361 37.156 107.483 37.794 108.011 38.564V42.546C107.483 43.316 106.361 43.954 105.283 43.954ZM115.624 46V31.326H113.314V46H115.624ZM123.549 46.264C125.221 46.264 126.783 45.714 127.861 44.702L126.805 43.184C126.035 43.954 124.825 44.372 123.769 44.372C121.767 44.372 120.579 43.03 120.403 41.446H128.587V40.874C128.587 37.53 126.563 35.11 123.373 35.11C120.227 35.11 117.983 37.596 117.983 40.676C117.983 44.042 120.337 46.264 123.549 46.264ZM126.365 39.796H120.381C120.469 38.52 121.393 37.002 123.351 37.002C125.441 37.002 126.299 38.542 126.365 39.796ZM139.179 46V40.5H143.073C146.131 40.5 147.847 38.41 147.847 35.924C147.847 33.416 146.153 31.326 143.073 31.326H136.605V46H139.179ZM142.721 38.234H139.179V33.592H142.721C144.173 33.592 145.207 34.516 145.207 35.924C145.207 37.31 144.173 38.234 142.721 38.234ZM152.255 46V31.326H149.945V46H152.255ZM164.074 46V38.938C164.074 36.1 162.006 35.11 159.63 35.11C157.936 35.11 156.396 35.638 155.164 36.826L156.132 38.432C157.034 37.508 158.09 37.068 159.278 37.068C160.73 37.068 161.764 37.816 161.764 39.048V40.632C160.972 39.73 159.762 39.268 158.31 39.268C156.572 39.268 154.636 40.28 154.636 42.744C154.636 45.076 156.594 46.264 158.31 46.264C159.718 46.264 160.972 45.758 161.764 44.834V46H164.074ZM159.234 44.68C157.936 44.68 156.946 43.932 156.946 42.766C156.946 41.622 157.936 40.852 159.234 40.852C160.224 40.852 161.214 41.226 161.764 41.952V43.58C161.214 44.306 160.224 44.68 159.234 44.68ZM166.628 50.158C166.936 50.246 167.596 50.312 167.926 50.312C169.576 50.29 170.83 49.718 171.556 47.914L176.682 35.374H174.218L171.116 43.338L168.014 35.374H165.528L169.906 46.132L169.378 47.342C169.07 48.046 168.586 48.266 167.838 48.266C167.574 48.266 167.2 48.2 166.958 48.09L166.628 50.158Z" fill="white"/>
<path d="M16.1455 10.7961C16.06 11.1151 16 11.4574 16 11.8498V44.1532C16 44.5402 16.0578 44.8807 16.1416 45.1955L33.342 28.0188L16.1455 10.7961Z" fill="#48A0DC"/>
<path d="M19.9725 9.54143C19.1719 9.02682 18.3826 8.89801 17.7162 9.07571L34.9885 26.3747L40.055 21.3162L19.9725 9.54143Z" fill="#88C057"/>
<path d="M47.4588 25.6574L42.0979 22.5142L36.6079 27.9967L42.201 33.5997L47.4175 30.5805C49.9615 29.0522 49.0323 26.5894 47.4588 25.6574Z" fill="#FFCC66"/>
<path d="M34.9608 29.6402L17.667 46.9082C18.3436 47.108 19.151 46.9893 19.972 46.4616L40.1173 34.8043L34.9608 29.6402Z" fill="#ED7161"/>
</svg>
