<svg width="22" height="19" viewBox="0 0 22 19" fill="none" xmlns="http://www.w3.org/2000/svg">
<path d="M22 2.71333C21.1933 3.08 19.9467 3.52 19.0667 3.66667C20.02 3.08 20.9 1.76 21.2667 0.733333C20.5333 1.17333 19.7267 1.76 18.92 2.05333L18.3333 1.46667C17.5267 0.586667 16.72 0 15.4 0C12.9067 0 11 1.90667 11 4.4C11 4.69333 11 4.91333 11.0733 5.13333H11C6.6 5.13333 3.66667 4.18 1.46667 1.46667C1.1 2.12667 0.733333 2.86 0.733333 3.66667C0.733333 5.20667 1.68667 6.52667 2.93333 7.33333C2.2 7.33333 1.32 6.96667 0.733333 6.6C0.733333 8.8 3.81333 11.2933 5.86667 11.7333C5.13333 12.4667 2.49333 11.8067 2.2 11.7333C2.78667 13.4933 4.62 14.5933 6.6 14.6667C5.06 15.84 3.22667 16.5 1.1 16.5C0.733333 16.5 0.366667 16.5 0 16.4267C1.98 17.6733 4.76667 18.3333 7.33333 18.3333C15.62 18.3333 19.8 11.8067 19.8 5.86667C19.8 5.64667 19.8 5.35333 19.8 5.13333C20.68 4.47333 21.4133 3.59333 22 2.71333Z" fill="white"/>
</svg>
