<svg width="24" height="20" viewBox="0 0 24 20" fill="none" xmlns="http://www.w3.org/2000/svg">
<path d="M24 2.96C23.12 3.36 21.76 3.84 20.8 4C21.84 3.36 22.8 1.92 23.2 0.8C22.4 1.28 21.52 1.92 20.64 2.24L20 1.6C19.12 0.64 18.24 0 16.8 0C14.08 0 12 2.08 12 4.8C12 5.12 12 5.36 12.08 5.6H12C7.2 5.6 4 4.56 1.6 1.6C1.2 2.32 0.8 3.12 0.8 4C0.8 5.68 1.84 7.12 3.2 8C2.4 8 1.44 7.6 0.8 7.2C0.8 9.6 4.16 12.32 6.4 12.8C5.6 13.6 2.72 12.88 2.4 12.8C3.04 14.72 5.04 15.92 7.2 16C5.52 17.28 3.52 18 1.2 18C0.8 18 0.4 18 0 17.92C2.16 19.28 5.2 20 8 20C17.04 20 21.6 12.88 21.6 6.4C21.6 6.16 21.6 5.84 21.6 5.6C22.56 4.88 23.36 3.92 24 2.96Z" fill="#2CA7E0"/>
</svg>
