<svg width="24" height="24" viewBox="0 0 24 24" fill="none" xmlns="http://www.w3.org/2000/svg">
<g clip-path="url(#clip0)">
<path d="M20.52 3.449C18.24 1.245 15.24 0 12.045 0C2.875 0 -2.883 9.935 1.696 17.838L0 24L6.335 22.348C9.095 23.839 11.356 23.707 12.051 23.795C22.684 23.795 27.977 10.931 20.505 3.488L20.52 3.449Z" fill="#ECEFF1"/>
<path d="M12.0671 21.7512L12.0611 21.7502H12.0451C8.86313 21.7502 6.83013 20.2432 6.63013 20.1562L2.88013 21.1312L3.88513 17.4862L3.64613 17.1112C2.65613 15.5352 2.13013 13.7202 2.13013 11.8512C2.13013 3.05821 12.8751 -1.33879 19.0931 4.87621C25.2961 11.0262 20.9411 21.7512 12.0671 21.7512Z" fill="#4CAF50"/>
<path d="M17.5068 14.3072L17.4978 14.3822C17.1968 14.2322 15.7308 13.5152 15.4578 13.4162C14.8448 13.1892 15.0178 13.3802 13.8408 14.7282C13.6658 14.9232 13.4918 14.9382 13.1948 14.8032C12.8948 14.6532 11.9318 14.3382 10.7918 13.3182C9.90377 12.5232 9.30777 11.5482 9.13177 11.2482C8.83877 10.7422 9.45177 10.6702 10.0098 9.61417C10.1098 9.40417 10.0588 9.23917 9.98477 9.09017C9.90977 8.94017 9.31277 7.47017 9.06277 6.88417C8.82277 6.30017 8.57577 6.37417 8.39077 6.37417C7.81477 6.32417 7.39377 6.33217 7.02277 6.71817C5.40877 8.49217 5.81577 10.3222 7.19677 12.2682C9.91077 15.8202 11.3568 16.4742 14.0008 17.3822C14.7148 17.6092 15.3658 17.5772 15.8808 17.5032C16.4548 17.4122 17.6478 16.7822 17.8968 16.0772C18.1518 15.3722 18.1518 14.7872 18.0768 14.6522C18.0028 14.5172 17.8068 14.4422 17.5068 14.3072Z" fill="#FAFAFA"/>
</g>
<defs>
<clipPath id="clip0">
<rect width="24" height="24" fill="white"/>
</clipPath>
</defs>
</svg>
